<svg xmlns="http://www.w3.org/2000/svg" viewBox="0 0 348.67 399.72"><defs><style>.cls-1,.cls-2{fill:#bfb0cc;}.cls-1,.cls-2,.cls-3,.cls-4,.cls-5,.cls-6,.cls-7,.cls-8{stroke:#231f20;}.cls-1,.cls-10{stroke-miterlimit:10;}.cls-10,.cls-2,.cls-3,.cls-4,.cls-5,.cls-6,.cls-7,.cls-8{stroke-linecap:round;}.cls-2,.cls-3,.cls-4,.cls-5,.cls-6,.cls-7,.cls-8{stroke-linejoin:round;}.cls-2{stroke-width:6px;}.cls-3{fill:#b699c8;}.cls-4{fill:#5a5461;stroke-width:3px;}.cls-5{fill:#603913;stroke-width:4px;}.cls-6{fill:#ed6192;}.cls-7{fill:#c86baa;}.cls-10,.cls-8{fill:none;}.cls-8{stroke-width:10px;}.cls-9{fill:#b598c8;}.cls-10{stroke:#b598c8;stroke-width:32px;stroke-dasharray:0 21.69;}.cls-11{fill-rule:evenodd;}</style></defs><title>BigEars</title><g id="Calque_1" data-name="Calque 1"><path class="cls-1" d="M215.81,162.2l-5.37-30.48-8.85-13.24s-17-14.87-37.41,0S152,140.62,152,140.62l4,24.69.68,10.21L152.16,185l6.57,12.25,12.11,4.76,12.43,3.69Z" transform="translate(-128.56 -86.76)"/><polygon class="cls-1" points="253.3 82.63 265.54 68.93 265.54 49.98 275.75 35.01 293.08 31.71 305.71 31.71 318.61 44.96 322.69 57.17 322.69 73.58 318.61 82.63 317.25 94.25 317.25 109.16 311.12 118.97 297.52 118.97 287.99 121.41 276.43 121.41 253.3 82.63"/></g><g id="chqrqcter"><path class="cls-2" d="M297.16,127.63c-113.63-9.82-145,134.27-145,199.92,0,34.54,17.64,62.94,45.87,82.21,1.21,21.57,8.32,69,29.81,69,16,0,23.82-23.89,27.36-45.47a205.79,205.79,0,0,0,42,4.23,211.71,211.71,0,0,0,28.12-1.86c3.61,22.16,11.64,47.87,27.46,47.87,21.42,0,28.13-42.61,29.64-65.41,36.22-18.91,59.78-50.62,59.78-90.53C442.16,261.9,410.79,117.81,297.16,127.63Z" transform="translate(-128.56 -86.76)"/><path class="cls-3" d="M399.23,241c0,33.13-47,50.2-105,50.2s-105-17.07-105-50.2,47-60,105-60S399.23,207.88,399.23,241Z" transform="translate(-128.56 -86.76)"/><path class="cls-4" d="M237.29,236.12c0-8.27,4.94-15,11-15s11,6.73,11,15h4c0-10.5-6.71-19-15-19s-15,8.5-15,19Z" transform="translate(-128.56 -86.76)"/><path class="cls-4" d="M323.76,236.12c0-8.27,4.94-15,11-15s11,6.73,11,15h4c0-10.5-6.71-19-15-19s-15,8.5-15,19Z" transform="translate(-128.56 -86.76)"/><path class="cls-5" d="M290.3,261.2c10.49,0,19-8.06,19-18h-38C271.3,253.14,279.81,261.2,290.3,261.2Z" transform="translate(-128.56 -86.76)"/><ellipse class="cls-6" cx="161.73" cy="165.44" rx="15.24" ry="7.29"/><ellipse class="cls-7" cx="101.24" cy="163.44" rx="14" ry="7"/><ellipse class="cls-7" cx="221.2" cy="163.44" rx="14" ry="7"/><path class="cls-8" d="M286.3,131.72c-5.72,15.52-15.78,26.09-22.48,23.62" transform="translate(-128.56 -86.76)"/><ellipse class="cls-9" cx="161.73" cy="267.51" rx="56" ry="40"/><ellipse class="cls-10" cx="161.73" cy="267.51" rx="56" ry="40"/><g id="Forma_1" data-name="Forma 1"><path class="cls-11" d="M175.45,96.59l-1.74-9.83a54.75,54.75,0,0,0-44.3,63.43l9.76-1.74a44.79,44.79,0,0,1,36.28-51.86Zm-2.37,36.91a12.43,12.43,0,1,0,17.31-3.08A12.44,12.44,0,0,0,173.08,133.5Zm4.94,58A10,10,0,0,1,164.18,194a9.62,9.62,0,0,1-2.67-2.77c-1.85-3.53-2.43-7-.21-14.57,2.37-7.81.54-13.51-1.19-19-1.48-4.74-3-9.64-2.25-16.92a31.1,31.1,0,0,1,5-14.32,24.85,24.85,0,1,1,40.75,28.46l8.16,5.69a34.8,34.8,0,1,0-57.06-39.84A41.17,41.17,0,0,0,148,139.64c-1,9.31,1,15.74,2.65,21,1.53,4.83,2.61,8.32,1.12,13.22-2.73,9.12-2.49,15.48,1,22.24a19.9,19.9,0,0,0,33.38,1.18Z" transform="translate(-128.56 -86.76)"/></g><g id="Forma_1-2" data-name="Forma 1"><path class="cls-11" d="M403.7,115.92a35,35,0,0,0-12.53,48.42l8.71-5.13a25.25,25.25,0,1,1,43.53-25.62,31.68,31.68,0,0,1,4,14.9c.22,7.44-1.74,12.28-3.62,17-2.19,5.45-4.49,11.09-2.7,19.19,1.66,7.81.79,11.31-1.36,14.74a9.7,9.7,0,0,1-2.93,2.6A10.13,10.13,0,0,1,423,198.41l-8.71,5.12A20.22,20.22,0,0,0,448.15,205c4.09-6.58,4.83-13,2.78-22.45-1.12-5.08.25-8.54,2.19-13.31,2.07-5.15,4.6-11.5,4.33-21a41.84,41.84,0,0,0-5.34-19.74A35,35,0,0,0,403.7,115.92Zm24.35,41.38a12.64,12.64,0,1,0-17.29-4.49A12.64,12.64,0,0,0,428.05,157.3Zm7.52-64.7L433,102.42a45.5,45.5,0,0,1,32.67,55.4l9.75,2.53A55.62,55.62,0,0,0,435.57,92.6Z" transform="translate(-128.56 -86.76)"/></g></g></svg>